<?xml version="1.0" encoding="UTF-8"?>
<svg width="642px" height="201px" viewBox="0 0 642 201" version="1.1" xmlns="http://www.w3.org/2000/svg" xmlns:xlink="http://www.w3.org/1999/xlink">
    <!-- Generator: Sketch 53.2 (72643) - https://sketchapp.com -->
    <title>Group</title>
    <desc>Created with Sketch.</desc>
    <g id="Page-1" stroke="none" stroke-width="1" fill="none" fill-rule="evenodd">
        <g id="Group" transform="translate(7.000000, -64.000000)" fill="#E53D19" fill-rule="nonzero">
            <path id="Line" d="M556.5822,233 L0.5,233 L-7,233 L-7,218 L0.5,218 L556.5822,218 C560.08591,199.771387 576.120262,186 595.371094,186 C617.186341,186 634.871094,203.684752 634.871094,225.5 C634.871094,247.315248 617.186341,265 595.371094,265 C576.120262,265 560.08591,251.228613 556.5822,233 Z"></path>
            <path d="M96,199.4 C87.733292,199.4 79.433375,197.500019 71.1,193.7 C62.766625,189.899981 55.200034,183.466712 48.4,174.4 L71.2,156.4 C74.666684,161.06669 78.799976,164.866652 83.6,167.8 C88.400024,170.733348 93.333308,172.2 98.4,172.2 C103.06669,172.2 106.766653,171.20001 109.5,169.2 C112.233347,167.19999 113.6,164.400018 113.6,160.8 C113.6,157.866652 112.26668,155.500009 109.6,153.7 C106.93332,151.899991 103.333356,149.600014 98.8,146.8 L87.6,139.8 C81.59997,135.933314 76.900017,131.466692 73.5,126.4 C70.099983,121.333308 68.4,114.733374 68.4,106.6 C68.4,100.733304 69.666654,95.266692 72.2,90.2 C74.733346,85.133308 78.133312,80.700019 82.4,76.9 C86.666688,73.099981 91.699971,70.100011 97.5,67.9 C103.300029,65.699989 109.5333,64.6 116.2,64.6 C123.800038,64.6 131.099965,66.366649 138.1,69.9 C145.100035,73.433351 151.26664,78.399968 156.6,84.8 L136.6,103.6 C133.26665,100.26665 129.900017,97.533344 126.5,95.4 C123.099983,93.266656 119.266688,92.2 115,92.2 C110.33331,92.2 106.866678,93.299989 104.6,95.5 C102.333322,97.700011 101.2,100.333318 101.2,103.4 C101.2,106.06668 102.566653,108.299991 105.3,110.1 C108.033347,111.900009 111.999974,114.46665 117.2,117.8 L129.2,125.2 C135.466698,129.066686 139.966653,133.299977 142.7,137.9 C145.433347,142.500023 146.8,148.599962 146.8,156.2 C146.8,162.20003 145.600012,167.799974 143.2,173 C140.799988,178.200026 137.400022,182.766647 133,186.7 C128.599978,190.633353 123.266698,193.733322 117,196 C110.733302,198.266678 103.733372,199.4 96,199.4 Z M166,197 L162.2,97 L193.8,97 L192.8,141.4 C192.533332,146.333358 192.200002,151.299975 191.8,156.3 C191.399998,161.300025 191.066668,166.333308 190.8,171.4 L191.6,171.4 C193.466676,166.333308 195.266658,161.266692 197,156.2 C198.733342,151.133308 200.666656,146.200024 202.8,141.4 L221,97 L248.2,97 L249.2,141.4 C249.333334,146.333358 249.300001,151.299975 249.1,156.3 C248.899999,161.300025 248.8,166.333308 248.8,171.4 L249.6,171.4 C251.466676,166.333308 253.133326,161.300025 254.6,156.3 C256.066674,151.299975 257.733324,146.333358 259.6,141.4 L275.6,97 L305.2,97 L263.6,197 L226.4,197 L226.4,159.8 C226.666668,155.13331 226.8,150.46669 226.8,145.8 C226.8,141.13331 226.933332,136.066694 227.2,130.6 L226.4,130.6 C224.533324,136.066694 222.833341,141.13331 221.3,145.8 C219.766659,150.46669 218.133342,155.13331 216.4,159.8 L202,197 L166,197 Z M295.6,156.2 C295.6,146.999954 297.26665,138.633371 300.6,131.1 C303.93335,123.566629 308.299973,117.100027 313.7,111.7 C319.100027,106.299973 325.166633,102.100015 331.9,99.1 C338.633367,96.099985 345.3333,94.6 352,94.6 C358.133364,94.6 363.299979,95.59999 367.5,97.6 C371.700021,99.60001 375.099987,102.333316 377.7,105.8 C380.300013,109.266684 382.199994,113.299977 383.4,117.9 C384.600006,122.500023 385.2,127.399974 385.2,132.6 C385.2,135.133346 384.966669,137.666654 384.5,140.2 C384.033331,142.733346 383.500003,145.099989 382.9,147.3 C382.299997,149.500011 381.700003,151.433325 381.1,153.1 C380.499997,154.766675 380.000002,155.93333 379.6,156.6 L325.6,156.6 C325.866668,163.2667 327.933314,168.066652 331.8,171 C335.666686,173.933348 340.533304,175.4 346.4,175.4 C349.200014,175.4 352.133318,174.73334 355.2,173.4 C358.266682,172.06666 360.933322,170.600008 363.2,169 L374.4,189 C370.39998,191.800014 365.266698,194.233323 359,196.3 C352.733302,198.366677 345.466708,199.4 337.2,199.4 C331.066636,199.4 325.466692,198.40001 320.4,196.4 C315.333308,194.39999 310.966685,191.533352 307.3,187.8 C303.633315,184.066648 300.766677,179.53336 298.7,174.2 C296.633323,168.86664 295.6,162.8667 295.6,156.2 Z M328,137.4 L358.4,137.4 C358.666668,136.599996 358.866666,135.633339 359,134.5 C359.133334,133.366661 359.2,132.200006 359.2,131 C359.2,127.533316 358.400008,124.666678 356.8,122.4 C355.199992,120.133322 352.266688,119 348,119 C344.133314,119 340.400018,120.466652 336.8,123.4 C333.199982,126.333348 330.266678,130.999968 328,137.4 Z M388,156.2 C388,146.999954 389.66665,138.633371 393,131.1 C396.33335,123.566629 400.699973,117.100027 406.1,111.7 C411.500027,106.299973 417.566633,102.100015 424.3,99.1 C431.033367,96.099985 437.7333,94.6 444.4,94.6 C450.533364,94.6 455.699979,95.59999 459.9,97.6 C464.100021,99.60001 467.499987,102.333316 470.1,105.8 C472.700013,109.266684 474.599994,113.299977 475.8,117.9 C477.000006,122.500023 477.6,127.399974 477.6,132.6 C477.6,135.133346 477.366669,137.666654 476.9,140.2 C476.433331,142.733346 475.900003,145.099989 475.3,147.3 C474.699997,149.500011 474.100003,151.433325 473.5,153.1 C472.899997,154.766675 472.400002,155.93333 472,156.6 L418,156.6 C418.266668,163.2667 420.333314,168.066652 424.2,171 C428.066686,173.933348 432.933304,175.4 438.8,175.4 C441.600014,175.4 444.533318,174.73334 447.6,173.4 C450.666682,172.06666 453.333322,170.600008 455.6,169 L466.8,189 C462.79998,191.800014 457.666698,194.233323 451.4,196.3 C445.133302,198.366677 437.866708,199.4 429.6,199.4 C423.466636,199.4 417.866692,198.40001 412.8,196.4 C407.733308,194.39999 403.366685,191.533352 399.7,187.8 C396.033315,184.066648 393.166677,179.53336 391.1,174.2 C389.033323,168.86664 388,162.8667 388,156.2 Z M420.4,137.4 L450.8,137.4 C451.066668,136.599996 451.266666,135.633339 451.4,134.5 C451.533334,133.366661 451.6,132.200006 451.6,131 C451.6,127.533316 450.800008,124.666678 449.2,122.4 C447.599992,120.133322 444.666688,119 440.4,119 C436.533314,119 432.800018,120.466652 429.2,123.4 C425.599982,126.333348 422.666678,130.999968 420.4,137.4 Z M508.8,188.6 L506.4,207.4 L501.6,232.2 L469.6,232.2 L496.8,97 L522.8,97 L523.6,107.8 L524,107.8 C528.400022,103.79998 533.166641,100.600012 538.3,98.2 C543.433359,95.799988 548.399976,94.6 553.2,94.6 C562.000044,94.6 568.866642,97.766635 573.8,104.1 C578.733358,110.433365 581.2,119.533274 581.2,131.4 C581.2,140.866714 579.733348,149.733292 576.8,158 C573.866652,166.266708 569.933358,173.466636 565,179.6 C560.066642,185.733364 554.400032,190.566649 548,194.1 C541.599968,197.633351 534.933368,199.4 528,199.4 C524.133314,199.4 520.53335,198.466676 517.2,196.6 C513.86665,194.733324 511.20001,192.066684 509.2,188.6 L508.8,188.6 Z M538.8,120.6 C536.13332,120.6 533.266682,121.366659 530.2,122.9 C527.133318,124.433341 524.400012,127.399978 522,131.8 L515.2,165.8 C516.266672,168.46668 517.766657,170.399994 519.7,171.6 C521.633343,172.800006 523.59999,173.4 525.6,173.4 C528.533348,173.4 531.33332,172.466676 534,170.6 C536.66668,168.733324 539.033323,166.13335 541.1,162.8 C543.166677,159.46665 544.833327,155.46669 546.1,150.8 C547.366673,146.13331 548,141.000028 548,135.4 C548,130.199974 547.166675,126.433345 545.5,124.1 C543.833325,121.766655 541.600014,120.6 538.8,120.6 Z" id="Sweep"></path>
        </g>
    </g>
</svg>